<?xml version="1.0" encoding="UTF-8"?>
<svg id="Laag_1" xmlns="http://www.w3.org/2000/svg" version="1.1" viewBox="0 0 221.33 157.66">
  <!-- Generator: Adobe Illustrator 29.6.0, SVG Export Plug-In . SVG Version: 2.1.1 Build 207)  -->
  <defs>
    <style>
      .st0 {
        fill: #2a3173;
      }

      .st1 {
        fill: #77b42b;
      }

      .st2 {
        fill: #0061ac;
      }

      .st3 {
        fill: #91d0d7;
      }
    </style>
  </defs>
  <path class="st3" d="M121.3,69.31c-8.82,0-19.01-2.55-30.51-9.35-32.18-19.04-49.43-1.44-50.15-.68l-5.62-5.23c.22-.23,21.96-23.01,59.68-.7,39.03,23.09,59.64-9.43,60.5-10.83l6.55,3.99c-.19.31-14.26,22.79-40.45,22.79Z"/>
  <path class="st2" d="M121.3,96.99c-8.82,0-19.01-2.55-30.51-9.35-32.18-19.04-49.43-1.44-50.15-.68l-5.62-5.23c.22-.23,21.96-23.01,59.68-.7,39.2,23.19,59.64-9.42,60.49-10.82l6.56,3.99c-.19.31-14.26,22.79-40.45,22.79Z"/>
  <rect class="st1" x="173.54" y="36.5" width="7.01" height="83.92"/>
  <path class="st0" d="M121.3,124.68c-8.82,0-19.01-2.55-30.51-9.35-32.18-19.04-49.43-1.44-50.15-.68l-5.62-5.23c.22-.23,21.96-23.01,59.68-.7,39.03,23.09,59.64-9.43,60.5-10.83l6.55,3.99c-.19.31-14.26,22.79-40.45,22.79Z"/>
</svg>